<svg width="10" height="10" viewBox="0 0 10 10" fill="none" xmlns="http://www.w3.org/2000/svg">
<path d="M4.82201 7.96534C4.88158 7.97779 4.93944 7.99903 4.99999 7.99903C5.06054 7.99903 5.1184 7.97779 5.17797 7.96534C5.22826 7.95484 5.28002 7.95484 5.32812 7.93531C5.38623 7.91187 5.43481 7.86719 5.48754 7.83082C5.52978 7.80177 5.57751 7.78443 5.61523 7.74708C5.61645 7.74586 5.61669 7.74415 5.61792 7.74293C5.61915 7.74171 5.62085 7.74147 5.62207 7.74024L9.69726 3.61524C10.0371 3.27149 10.0342 2.71778 9.69042 2.37794C9.34667 2.0381 8.79198 2.04103 8.45312 2.38478L5 5.88014L1.54688 2.38478C1.20801 2.04103 0.653326 2.0381 0.309576 2.37794C0.136726 2.54884 0.0498056 2.77442 0.0498056 3.00001C0.0498056 3.22169 0.133785 3.44435 0.302735 3.61524L4.37794 7.74024C4.37916 7.74146 4.38087 7.7417 4.38209 7.74293C4.38331 7.74416 4.38355 7.74586 4.38478 7.74708C4.4225 7.78443 4.47023 7.80177 4.51247 7.83082C4.5652 7.8672 4.61379 7.91187 4.67189 7.93531C4.71999 7.95484 4.77171 7.95484 4.82201 7.96534Z" fill="#292929"/>
</svg>
